<?xml version="1.0" standalone="no"?>
<!DOCTYPE svg PUBLIC "-//W3C//DTD SVG 20010904//EN"
 "http://www.w3.org/TR/2001/REC-SVG-20010904/DTD/svg10.dtd">
<svg version="1.0" xmlns="http://www.w3.org/2000/svg"
 width="250.000000pt" height="250.000000pt" viewBox="0 0 250.000000 250.000000"
 preserveAspectRatio="xMidYMid meet">
<metadata>
Created by potrace 1.14, written by Peter Selinger 2001-2017
</metadata>
<g transform="translate(0.000000,250.000000) scale(0.100000,-0.100000)"
fill="#000000" stroke="none">
<path d="M832 2485 c-111 -20 -113 -22 -62 -51 73 -41 151 -129 136 -153 -3
-5 -29 -21 -58 -36 -151 -79 -284 -191 -318 -269 -12 -26 -23 -55 -24 -64 -2
-9 -7 -35 -11 -57 -11 -67 -68 -131 -165 -189 -56 -33 -179 -86 -200 -86 -20
0 -21 -27 -5 -83 28 -98 109 -183 199 -209 25 -7 102 -11 196 -10 174 2 221
-8 283 -59 45 -37 84 -102 101 -166 21 -79 7 -203 -31 -276 -14 -28 -14 -29 9
-22 51 16 149 102 195 170 53 79 63 200 22 277 -24 46 -59 83 -98 108 -22 13
-36 27 -30 30 14 9 126 -9 168 -26 l34 -14 -19 21 c-30 33 -94 66 -152 78 -52
11 -234 8 -302 -4 -19 -4 -65 -13 -102 -20 -89 -17 -245 -14 -278 5 -62 37
-110 96 -110 137 0 14 15 24 56 38 75 26 188 101 248 166 40 43 57 55 85 57
50 4 102 21 125 41 19 16 40 48 90 134 l27 48 -48 -30 c-26 -16 -68 -35 -93
-41 -25 -7 -57 -21 -72 -32 l-28 -19 10 26 c26 69 53 100 145 169 81 62 183
117 248 137 26 7 48 18 50 24 8 19 -35 114 -70 155 -34 39 -34 40 -11 40 39 0
170 -40 218 -66 25 -14 63 -40 85 -59 34 -30 38 -38 15 -37 -3 0 -32 -12 -65
-27 l-60 -28 90 0 c136 -1 265 -41 390 -122 22 -14 46 -32 53 -38 7 -7 17 -13
22 -13 13 0 224 -210 239 -237 l12 -23 -35 20 c-66 40 -247 100 -298 100 -6 0
15 -18 48 -41 129 -89 241 -234 296 -384 31 -84 36 -104 44 -186 3 -35 9 -68
12 -74 3 -7 2 -7 -5 0 -6 6 -28 44 -50 85 -46 88 -85 150 -95 150 -4 0 -5 -14
-1 -31 8 -42 8 -173 0 -229 -3 -25 -9 -65 -13 -90 -15 -105 -84 -271 -160
-386 -139 -210 -380 -366 -629 -410 -22 -4 -49 -9 -60 -11 -75 -17 -256 -11
-368 12 -75 15 -224 84 -302 138 -28 20 -29 20 -15 2 118 -156 299 -290 488
-364 152 -59 244 -76 417 -76 158 1 203 8 390 66 48 15 210 101 272 144 87 62
226 206 289 301 90 135 161 318 181 469 14 98 8 289 -11 382 -23 112 -86 282
-132 355 -13 20 -24 42 -24 47 0 12 69 -6 90 -23 8 -7 33 -23 55 -37 l40 -23
-21 29 c-11 17 -25 41 -32 55 -38 76 -156 210 -246 279 -57 44 -179 111 -202
111 -7 0 -15 4 -18 9 -6 9 42 8 103 -4 l33 -6 -28 24 c-88 74 -229 142 -334
162 -14 3 -36 7 -50 10 -14 3 -76 9 -139 12 -104 5 -118 9 -157 35 -51 34
-136 72 -184 82 -67 14 -215 14 -288 1z"/>
</g>
</svg>
